# xmcd CD database file
#
# Track frame offsets:
#	150
#	8537
#	29047
#	48786
#	67159
#	86265
#
# Disc length: 1392 seconds
#
# Revision: 0
# Processed by: cddbd v1.5.2PL0 Copyright (c) Steve Scherf et al.
# Submitted via: CDex 1.51
#
DISCID=41056e06
DTITLE=Julien Dyne - Phantom Limbo EP
DYEAR=2007
DGENRE=Jazz
TTITLE0=Telekesis (Intro)
TTITLE1=Maddingos
TTITLE2=Rice And Beans
TTITLE3=The Truffle Shuffle
TTITLE4=Scissor Hands
TTITLE5=Off My Feet (feat. Tyra Hammond)
EXTD=YEAR: 2007
EXTT0=
EXTT1=
EXTT2=
EXTT3=
EXTT4=
EXTT5=
PLAYORDER=
